<?xml version="1.0" encoding="UTF-8" standalone="no"?>
<!-- Generator: Adobe Illustrator 18.1.1, SVG Export Plug-In . SVG Version: 6.00 Build 0)  -->

<svg
   xmlns:dc="http://purl.org/dc/elements/1.1/"
   xmlns:cc="http://creativecommons.org/ns#"
   xmlns:rdf="http://www.w3.org/1999/02/22-rdf-syntax-ns#"
   xmlns:svg="http://www.w3.org/2000/svg"
   xmlns="http://www.w3.org/2000/svg"
   xmlns:sodipodi="http://sodipodi.sourceforge.net/DTD/sodipodi-0.dtd"
   xmlns:inkscape="http://www.inkscape.org/namespaces/inkscape"
   version="1.1"
   id="Instagram"
   x="0px"
   y="0px"
   viewBox="0 0 20 20"
   enable-background="new 0 0 20 20"
   xml:space="preserve"
   inkscape:version="0.91 r13725"
   sodipodi:docname="instagram.svg"><metadata
     id="metadata3549"><rdf:RDF><cc:Work
         rdf:about=""><dc:format>image/svg+xml</dc:format><dc:type
           rdf:resource="http://purl.org/dc/dcmitype/StillImage" /></cc:Work></rdf:RDF></metadata><defs
     id="defs3547" /><sodipodi:namedview
     pagecolor="#ffffff"
     bordercolor="#666666"
     borderopacity="1"
     objecttolerance="10"
     gridtolerance="10"
     guidetolerance="10"
     inkscape:pageopacity="0"
     inkscape:pageshadow="2"
     inkscape:window-width="640"
     inkscape:window-height="480"
     id="namedview3545"
     showgrid="false"
     inkscape:zoom="11.8"
     inkscape:cx="10"
     inkscape:cy="10"
     inkscape:window-x="0"
     inkscape:window-y="0"
     inkscape:window-maximized="0"
     inkscape:current-layer="Instagram" /><path
     d="M17,1H3C1.9,1,1,1.9,1,3v14c0,1.101,0.9,2,2,2h14c1.1,0,2-0.899,2-2V3C19,1.9,18.1,1,17,1z M9.984,15.523  c3.059,0,5.538-2.481,5.538-5.539c0-0.338-0.043-0.664-0.103-0.984H17v7.216c0,0.382-0.31,0.69-0.693,0.69H3.693  C3.31,16.906,3,16.598,3,16.216V9h1.549C4.488,9.32,4.445,9.646,4.445,9.984C4.445,13.043,6.926,15.523,9.984,15.523z M6.523,9.984  c0-1.912,1.55-3.461,3.462-3.461c1.911,0,3.462,1.549,3.462,3.461s-1.551,3.462-3.462,3.462C8.072,13.446,6.523,11.896,6.523,9.984z   M16.307,6h-1.615C14.31,6,14,5.688,14,5.308V3.691C14,3.309,14.31,3,14.691,3h1.615C16.69,3,17,3.309,17,3.691v1.616  C17,5.688,16.69,6,16.307,6z"
     id="path3543"
     style="fill:#ffffff" /></svg>